[
  {
    "duration_time": "0.005875",
    "pts_time": "0.138125"
  },
  {
    "duration_time": "0.072000",
    "pts_time": "0.144000"
  },
  {
    "duration_time": "0.072000",
    "pts_time": "0.216000"
  },
  {
    "duration_time": "0.072000",
    "pts_time": "0.288000"
  },
  {
    "duration_time": "0.072000",
    "pts_time": "0.360000"
  },
  {
    "duration_time": "0.072000",
    "pts_time": "0.432000"
  },
  {
    "duration_time": "0.072000",
    "pts_time": "0.504000"
  },
  {
    "duration_time": "0.072000",
    "pts_time": "0.576000"
  },
  {
    "duration_time": "0.072000",
    "pts_time": "0.648000"
  },
  {
    "duration_time": "0.072000",
    "pts_time": "0.720000"
  },
  {
    "duration_time": "0.072000",
    "pts_time": "0.792000"
  },
  {
    "duration_time": "0.072000",
    "pts_time": "0.864000"
  },
  {
    "duration_time": "0.072000",
    "pts_time": "0.936000"
  },
  {
    "duration_time": "0.072000",
    "pts_time": "1.008000"
  },
  {
    "duration_time": "0.072000",
    "pts_time": "1.080000"
  },
  {
    "duration_time": "0.072000",
    "pts_time": "1.152000"
  },
  {
    "duration_time": "0.072000",
    "pts_time": "1.224000"
  },
  {
    "duration_time": "0.072000",
    "pts_time": "1.296000"
  },
  {
    "duration_time": "0.072000",
    "pts_time": "1.368000"
  },
  {
    "duration_time": "0.072000",
    "pts_time": "1.440000"
  },
  {
    "duration_time": "0.072000",
    "pts_time": "1.512000"
  },
  {
    "duration_time": "0.072000",
    "pts_time": "1.584000"
  },
  {
    "duration_time": "0.072000",
    "pts_time": "1.656000"
  },
  {
    "duration_time": "0.072000",
    "pts_time": "1.728000"
  },
  {
    "duration_time": "0.072000",
    "pts_time": "1.800000"
  },
  {
    "duration_time": "0.072000",
    "pts_time": "1.872000"
  },
  {
    "duration_time": "0.072000",
    "pts_time": "1.944000"
  },
  {
    "duration_time": "0.072000",
    "pts_time": "2.016000"
  },
  {
    "duration_time": "0.072000",
    "pts_time": "2.088000"
  },
  {
    "duration_time": "0.072000",
    "pts_time": "2.160000"
  },
  {
    "duration_time": "0.072000",
    "pts_time": "2.232000"
  },
  {
    "duration_time": "0.072000",
    "pts_time": "2.304000"
  },
  {
    "duration_time": "0.072000",
    "pts_time": "2.376000"
  },
  {
    "duration_time": "0.072000",
    "pts_time": "2.448000"
  },
  {
    "duration_time": "0.072000",
    "pts_time": "2.520000"
  },
  {
    "duration_time": "0.072000",
    "pts_time": "2.592000"
  },
  {
    "duration_time": "0.072000",
    "pts_time": "2.664000"
  },
  {
    "duration_time": "0.072000",
    "pts_time": "2.736000"
  },
  {
    "duration_time": "0.072000",
    "pts_time": "2.808000"
  },
  {
    "duration_time": "0.072000",
    "pts_time": "2.880000"
  },
  {
    "duration_time": "0.072000",
    "pts_time": "2.952000"
  },
  {
    "duration_time": "0.072000",
    "pts_time": "3.024000"
  },
  {
    "duration_time": "0.072000",
    "pts_time": "3.096000"
  },
  {
    "duration_time": "0.072000",
    "pts_time": "3.168000"
  },
  {
    "duration_time": "0.072000",
    "pts_time": "3.240000"
  },
  {
    "duration_time": "0.072000",
    "pts_time": "3.312000"
  },
  {
    "duration_time": "0.072000",
    "pts_time": "3.384000"
  },
  {
    "duration_time": "0.072000",
    "pts_time": "3.456000"
  },
  {
    "duration_time": "0.072000",
    "pts_time": "3.528000"
  },
  {
    "duration_time": "0.072000",
    "pts_time": "3.600000"
  },
  {
    "duration_time": "0.072000",
    "pts_time": "3.672000"
  },
  {
    "duration_time": "0.072000",
    "pts_time": "3.744000"
  },
  {
    "duration_time": "0.072000",
    "pts_time": "3.816000"
  },
  {
    "duration_time": "0.072000",
    "pts_time": "3.888000"
  },
  {
    "duration_time": "0.072000",
    "pts_time": "3.960000"
  },
  {
    "duration_time": "0.072000",
    "pts_time": "4.032000"
  },
  {
    "duration_time": "0.072000",
    "pts_time": "4.104000"
  },
  {
    "duration_time": "0.072000",
    "pts_time": "4.176000"
  },
  {
    "duration_time": "0.072000",
    "pts_time": "4.248000"
  },
  {
    "duration_time": "0.072000",
    "pts_time": "4.320000"
  },
  {
    "duration_time": "0.072000",
    "pts_time": "4.392000"
  },
  {
    "duration_time": "0.072000",
    "pts_time": "4.464000"
  },
  {
    "duration_time": "0.072000",
    "pts_time": "4.536000"
  },
  {
    "duration_time": "0.072000",
    "pts_time": "4.608000"
  },
  {
    "duration_time": "0.072000",
    "pts_time": "4.680000"
  },
  {
    "duration_time": "0.072000",
    "pts_time": "4.752000"
  },
  {
    "duration_time": "0.072000",
    "pts_time": "4.824000"
  },
  {
    "duration_time": "0.072000",
    "pts_time": "4.896000"
  },
  {
    "duration_time": "0.072000",
    "pts_time": "4.968000"
  },
  {
    "duration_time": "0.072000",
    "pts_time": "5.040000"
  },
  {
    "duration_time": "0.072000",
    "pts_time": "5.112000"
  },
  {
    "duration_time": "0.072000",
    "pts_time": "5.184000"
  },
  {
    "duration_time": "0.072000",
    "pts_time": "5.256000"
  },
  {
    "duration_time": "0.072000",
    "pts_time": "5.328000"
  },
  {
    "duration_time": "0.072000",
    "pts_time": "5.400000"
  },
  {
    "duration_time": "0.072000",
    "pts_time": "5.472000"
  },
  {
    "duration_time": "0.072000",
    "pts_time": "5.544000"
  },
  {
    "duration_time": "0.072000",
    "pts_time": "5.616000"
  },
  {
    "duration_time": "0.072000",
    "pts_time": "5.688000"
  },
  {
    "duration_time": "0.072000",
    "pts_time": "5.760000"
  },
  {
    "duration_time": "0.072000",
    "pts_time": "5.832000"
  },
  {
    "duration_time": "0.072000",
    "pts_time": "5.904000"
  },
  {
    "duration_time": "0.072000",
    "pts_time": "5.976000"
  },
  {
    "duration_time": "0.072000",
    "pts_time": "6.048000"
  },
  {
    "duration_time": "0.072000",
    "pts_time": "6.120000"
  },
  {
    "duration_time": "0.072000",
    "pts_time": "6.192000"
  },
  {
    "duration_time": "0.072000",
    "pts_time": "6.264000"
  },
  {
    "duration_time": "0.072000",
    "pts_time": "6.336000"
  },
  {
    "duration_time": "0.072000",
    "pts_time": "6.408000"
  },
  {
    "duration_time": "0.072000",
    "pts_time": "6.480000"
  },
  {
    "duration_time": "0.072000",
    "pts_time": "6.552000"
  },
  {
    "duration_time": "0.072000",
    "pts_time": "6.624000"
  },
  {
    "duration_time": "0.072000",
    "pts_time": "6.696000"
  },
  {
    "duration_time": "0.072000",
    "pts_time": "6.768000"
  },
  {
    "duration_time": "0.072000",
    "pts_time": "6.840000"
  },
  {
    "duration_time": "0.072000",
    "pts_time": "6.912000"
  },
  {
    "duration_time": "0.072000",
    "pts_time": "6.984000"
  },
  {
    "duration_time": "0.072000",
    "pts_time": "7.056000"
  },
  {
    "duration_time": "0.072000",
    "pts_time": "7.128000"
  },
  {
    "duration_time": "0.072000",
    "pts_time": "7.200000"
  },
  {
    "duration_time": "0.072000",
    "pts_time": "7.272000"
  },
  {
    "duration_time": "0.072000",
    "pts_time": "7.344000"
  },
  {
    "duration_time": "0.072000",
    "pts_time": "7.416000"
  },
  {
    "duration_time": "0.072000",
    "pts_time": "7.488000"
  },
  {
    "duration_time": "0.072000",
    "pts_time": "7.560000"
  },
  {
    "duration_time": "0.072000",
    "pts_time": "7.632000"
  },
  {
    "duration_time": "0.072000",
    "pts_time": "7.704000"
  },
  {
    "duration_time": "0.072000",
    "pts_time": "7.776000"
  },
  {
    "duration_time": "0.072000",
    "pts_time": "7.848000"
  },
  {
    "duration_time": "0.072000",
    "pts_time": "7.920000"
  },
  {
    "duration_time": "0.072000",
    "pts_time": "7.992000"
  },
  {
    "duration_time": "0.072000",
    "pts_time": "8.064000"
  },
  {
    "duration_time": "0.072000",
    "pts_time": "8.136000"
  },
  {
    "duration_time": "0.072000",
    "pts_time": "8.208000"
  },
  {
    "duration_time": "0.072000",
    "pts_time": "8.280000"
  },
  {
    "duration_time": "0.072000",
    "pts_time": "8.352000"
  },
  {
    "duration_time": "0.072000",
    "pts_time": "8.424000"
  },
  {
    "duration_time": "0.072000",
    "pts_time": "8.496000"
  },
  {
    "duration_time": "0.072000",
    "pts_time": "8.568000"
  },
  {
    "duration_time": "0.072000",
    "pts_time": "8.640000"
  },
  {
    "duration_time": "0.072000",
    "pts_time": "8.712000"
  },
  {
    "duration_time": "0.072000",
    "pts_time": "8.784000"
  },
  {
    "duration_time": "0.072000",
    "pts_time": "8.856000"
  },
  {
    "duration_time": "0.072000",
    "pts_time": "8.928000"
  },
  {
    "duration_time": "0.072000",
    "pts_time": "9.000000"
  },
  {
    "duration_time": "0.072000",
    "pts_time": "9.072000"
  },
  {
    "duration_time": "0.072000",
    "pts_time": "9.144000"
  },
  {
    "duration_time": "0.072000",
    "pts_time": "9.216000"
  },
  {
    "duration_time": "0.072000",
    "pts_time": "9.288000"
  },
  {
    "duration_time": "0.072000",
    "pts_time": "9.360000"
  },
  {
    "duration_time": "0.072000",
    "pts_time": "9.432000"
  },
  {
    "duration_time": "0.072000",
    "pts_time": "9.504000"
  },
  {
    "duration_time": "0.072000",
    "pts_time": "9.576000"
  },
  {
    "duration_time": "0.072000",
    "pts_time": "9.648000"
  },
  {
    "duration_time": "0.072000",
    "pts_time": "9.720000"
  },
  {
    "duration_time": "0.072000",
    "pts_time": "9.792000"
  },
  {
    "duration_time": "0.072000",
    "pts_time": "9.864000"
  },
  {
    "duration_time": "0.072000",
    "pts_time": "9.936000"
  },
  {
    "duration_time": "0.072000",
    "pts_time": "10.008000"
  },
  {
    "duration_time": "0.072000",
    "pts_time": "10.080000"
  },
  {
    "duration_time": "0.072000",
    "pts_time": "10.152000"
  },
  {
    "duration_time": "0.072000",
    "pts_time": "10.224000"
  },
  {
    "duration_time": "0.072000",
    "pts_time": "10.296000"
  },
  {
    "duration_time": "0.072000",
    "pts_time": "10.368000"
  },
  {
    "duration_time": "0.072000",
    "pts_time": "10.440000"
  },
  {
    "duration_time": "0.072000",
    "pts_time": "10.512000"
  },
  {
    "duration_time": "0.072000",
    "pts_time": "10.584000"
  },
  {
    "duration_time": "0.072000",
    "pts_time": "10.656000"
  },
  {
    "duration_time": "0.072000",
    "pts_time": "10.728000"
  },
  {
    "duration_time": "0.072000",
    "pts_time": "10.800000"
  },
  {
    "duration_time": "0.072000",
    "pts_time": "10.872000"
  },
  {
    "duration_time": "0.072000",
    "pts_time": "10.944000"
  },
  {
    "duration_time": "0.072000",
    "pts_time": "11.016000"
  },
  {
    "duration_time": "0.072000",
    "pts_time": "11.088000"
  },
  {
    "duration_time": "0.072000",
    "pts_time": "11.160000"
  },
  {
    "duration_time": "0.072000",
    "pts_time": "11.232000"
  },
  {
    "duration_time": "0.072000",
    "pts_time": "11.304000"
  },
  {
    "duration_time": "0.072000",
    "pts_time": "11.376000"
  },
  {
    "duration_time": "0.072000",
    "pts_time": "11.448000"
  },
  {
    "duration_time": "0.072000",
    "pts_time": "11.520000"
  },
  {
    "duration_time": "0.072000",
    "pts_time": "11.592000"
  },
  {
    "duration_time": "0.072000",
    "pts_time": "11.664000"
  },
  {
    "duration_time": "0.072000",
    "pts_time": "11.736000"
  },
  {
    "duration_time": "0.072000",
    "pts_time": "11.808000"
  },
  {
    "duration_time": "0.072000",
    "pts_time": "11.880000"
  },
  {
    "duration_time": "0.072000",
    "pts_time": "11.952000"
  },
  {
    "duration_time": "0.072000",
    "pts_time": "12.024000"
  },
  {
    "duration_time": "0.072000",
    "pts_time": "12.096000"
  },
  {
    "duration_time": "0.072000",
    "pts_time": "12.168000"
  },
  {
    "duration_time": "0.072000",
    "pts_time": "12.240000"
  },
  {
    "duration_time": "0.072000",
    "pts_time": "12.312000"
  },
  {
    "duration_time": "0.072000",
    "pts_time": "12.384000"
  },
  {
    "duration_time": "0.072000",
    "pts_time": "12.456000"
  },
  {
    "duration_time": "0.072000",
    "pts_time": "12.528000"
  },
  {
    "duration_time": "0.072000",
    "pts_time": "12.600000"
  },
  {
    "duration_time": "0.072000",
    "pts_time": "12.672000"
  },
  {
    "duration_time": "0.072000",
    "pts_time": "12.744000"
  },
  {
    "duration_time": "0.072000",
    "pts_time": "12.816000"
  },
  {
    "duration_time": "0.072000",
    "pts_time": "12.888000"
  },
  {
    "duration_time": "0.072000",
    "pts_time": "12.960000"
  },
  {
    "duration_time": "0.072000",
    "pts_time": "13.032000"
  },
  {
    "duration_time": "0.072000",
    "pts_time": "13.104000"
  },
  {
    "duration_time": "0.018125",
    "pts_time": "13.176000"
  }
]
